<svg enable-background="new 0 0 100 27.1" height="164.316767" viewBox="0 0 100 27.1" width="608.580619"
    xmlns="http://www.w3.org/2000/svg">
    <ellipse clip-rule="evenodd" cx="9.4" cy="2.5" fill="#00733b" fill-rule="evenodd" rx="2.6" ry="2.5"/>
    <ellipse clip-rule="evenodd" cx="17.5" cy="2.5" fill="#00733b" fill-rule="evenodd" rx="2.6" ry="2.5"/>
    <path clip-rule="evenodd" d="m6 18.7 3.3 8.4 3.4-8.4-3.4-6.5z" fill="#00733b" fill-rule="evenodd"/>
    <path clip-rule="evenodd" d="m17.5 12.2-3.4 6.5 3.4 8.4 3.4-8.4z" fill="#00733b" fill-rule="evenodd"/>
    <path clip-rule="evenodd" d="m0 17.7 5.9-12h6.7l.8 1.2.7-1.2h6.8l5.9 12h-5.3l-4.1-8-4 8-4.1-8-4 8z" fill="#f48120" fill-rule="evenodd"/>
    <g fill="#00733b">
        <path d="m33.8 9.9h3.4l2.7 6.8c.1.3.3.6.6.9h-3.9c.1-.2.2-.3.2-.5s-.1-.5-.2-.8l-.4-.8h-3.2l-.5 1.1c-.1.2-.1.4-.1.5s0 .3.1.5h-2.2c.3-.4.6-.9.9-1.5l2.7-5.8c.2-.1.1-.2-.1-.4zm2 4.4-1-2.4-1.1 2.4z"/>
        <path d="m45.8 11.9v1.1h-1.9v2.1 1.8c0 .3.1.5.2.7h-3.3c.1-.2.2-.3.2-.5s0-.5 0-.9v-3.2h-.8v-1.1h.8v-.4c0-1.1.7-1.6 2.1-1.6h3.1l.2 1.3c-.2-.1-.3-.2-.4-.2s-.2 0-.5 0h-1.2c-.2 0-.4 0-.4.1-.1.1-.1.2-.1.4v.4z"/>
        <path d="m49.1 11.9.1.9c.1-.2.1-.4.2-.5s.2-.2.3-.3c.2-.1.5-.2.9-.2h1.4v1.9c-.1-.1-.3-.2-.4-.3-.2 0-.4-.1-.7-.1h-.6c-.3 0-.5.1-.7.2s-.2.4-.2.6v1.9.9c0 .2.1.3.2.5h-3.3c.1-.2.2-.4.2-.5 0-.2 0-.5 0-.9v-2.8c0-.4 0-.7 0-.9s-.1-.3-.2-.5h2.8z"/>
        <path d="m55.4 11.9v4.3.9c0 .2.1.3.2.5h-3.3c.1-.2.2-.4.2-.5 0-.2 0-.5 0-.9v-2.8c0-.4 0-.7 0-.9s-.1-.3-.2-.5h3.1zm0-2v1.4h-2.8v-1.4z"/>
        <path d="m59.7 11.2v1.9h2.6c.3 0 .7-.1 1-.2v1.7c-.2-.1-.4-.2-.5-.2-.2 0-.4 0-.7 0h-2.3v2.2c0 .5.1.9.3 1.1h-3.6c.2-.3.3-.6.3-1.1v-5.4c0-.5-.1-.9-.3-1.1h6.7l.2 1.5c-.2-.1-.4-.1-.5-.2s-.5 0-1.1 0h-2.1z"/>
        <path d="m65.9 11.9h3.7c.5 0 .8 0 1 .1s.4.2.6.3c.2.2.3.3.4.6.1.2.1.5.1.8v2.3c0 1.1-.6 1.7-1.9 1.6h-3.6c-.5 0-.9 0-1.1-.1-.2 0-.4-.2-.6-.3-.3-.3-.5-.7-.5-1.3v-2.4c0-.6.2-1 .7-1.3.2-.1.3-.2.5-.2 0 0 .3-.1.7-.1zm.8 1.8v2.2c0 .3 0 .4.1.5s.3.1.5.1h.8c.2 0 .4-.1.5-.2s.1-.3.1-.6v-2.1c0-.3-.1-.5-.2-.6s-.3-.2-.6-.2h-.7c-.3.2-.5.4-.5.9z"/>
        <path d="m75.2 11.9.1.9c.1-.2.1-.4.2-.5s.2-.2.3-.3c.2-.1.5-.2.9-.2h1.4v1.9c-.1-.1-.3-.2-.4-.3-.2 0-.4-.1-.7-.1h-.6c-.3 0-.5.1-.7.2s-.2.4-.2.6v1.9.9c0 .2.1.3.2.5h-3.3c.1-.2.2-.4.2-.5 0-.2 0-.5 0-.9v-2.8c0-.4 0-.7 0-.9s-.1-.3-.2-.5h2.8z"/>
        <path d="m86.3 11.9v4.3.9c0 .2.1.3.2.5h-2.6l-.1-.5c-.1.2-.2.4-.3.4s-.4.1-.7.1h-2.2c-.4 0-.7 0-.9-.1s-.4-.2-.5-.3c-.2-.2-.3-.3-.3-.5s-.1-.5-.1-1v-2.3c0-.4 0-.7 0-.9s-.1-.3-.2-.5h3v3.9c0 .5.2.8.6.8h.7c.3 0 .5 0 .6-.1s.1-.3.1-.6v-2.5c0-.4 0-.7 0-.9s-.1-.3-.2-.5h2.9z"/>
        <path d="m90.2 11.9.1.6c.1-.2.1-.4.2-.4.1-.1.3-.1.5-.1h2.9c.4 0 .6 0 .8.1.1.1.2.2.3.5.1-.2.1-.4.2-.4.1-.1.3-.1.5-.1h2.3c.4 0 .7 0 .8.1.2.1.4.2.5.4.2.2.3.4.3.6.1.2.1.6.1 1v2.2 1s.1.2.2.4h-3.2c.1-.2.2-.4.2-.5 0-.2 0-.5 0-.9v-2.5c0-.3 0-.5-.1-.6s-.2-.1-.5-.1h-.7c-.3 0-.4 0-.5.1s-.1.3-.1.5v2.5.9c0 .2.1.3.2.5h-3.3c.1-.2.2-.4.2-.5 0-.2 0-.5 0-.9v-2.5c0-.3 0-.5-.1-.6.1-.1 0-.2-.2-.2h-.9c-.2 0-.4 0-.4.1-.1.1-.1.3-.1.5v2.5.9c0 .2.1.3.2.5h-3.3c.1-.2.2-.4.2-.5 0-.2 0-.5 0-.9v-2.8c0-.4 0-.7 0-.9s-.1-.3-.2-.5z"/>
    </g>
</svg>